<?xml version="1.0" encoding="UTF-8"?>
<svg id="Capa_1" xmlns="http://www.w3.org/2000/svg" version="1.1" viewBox="0 0 1350 512.62">
  <!-- Generator: Adobe Illustrator 29.8.4, SVG Export Plug-In . SVG Version: 2.1.1 Build 6)  -->
  <defs>
    <style>
      .st0 {
        fill: #241f20;
      }
    </style>
  </defs>
  <g>
    <path class="st0" d="M438.26,252.41v-71.59c0-4.51-.31-8.2-.91-11.07-.61-2.86-1.43-5.08-2.47-6.64-1.04-1.56-2.3-2.64-3.77-3.26-1.48-.61-3.17-.91-5.08-.91-3.47,0-6.34.74-8.59,2.21-2.26,1.48-4.34,3.17-6.25,5.08v86.17h-44.26V122.24h44.26v29.42c3.99-11.11,9.11-19.39,15.36-24.86,6.25-5.47,13.36-8.2,21.35-8.2,5.73,0,10.59,1,14.58,2.99,3.99,2,7.29,4.69,9.89,8.07,2.6,3.39,4.6,7.25,5.99,11.59,1.39,4.34,2.43,8.85,3.12,13.54,8.16-24.12,20.74-36.19,37.75-36.19,7.46,0,13.45,1.74,17.97,5.21,4.51,3.47,8.03,7.81,10.54,13.02,2.51,5.21,4.17,10.93,4.95,17.18.78,6.25,1.17,12.15,1.17,17.7v80.71h-44.26v-71.59c0-4.51-.31-8.2-.91-11.07-.61-2.86-1.43-5.08-2.47-6.64-1.04-1.56-2.3-2.64-3.78-3.26-1.48-.61-3.17-.91-5.08-.91-3.48,0-6.3.74-8.46,2.21-2.17,1.48-4.3,3.17-6.38,5.08v86.17h-44.26Z"/>
    <path class="st0" d="M565.57,212.84c0-6.07.87-11.8,2.6-17.18,1.73-5.38,4.34-10.06,7.81-14.06,3.47-3.99,7.85-7.16,13.15-9.5,5.29-2.34,11.41-3.52,18.35-3.52,5.55,0,10.63.61,15.23,1.82,4.6,1.22,8.68,2.73,12.24,4.56,3.55,1.82,6.68,3.9,9.37,6.25,2.69,2.34,4.99,4.65,6.9,6.9v-8.33c0-8.85-2.69-15.45-8.07-19.79-5.38-4.34-14.84-6.51-28.38-6.51-5.56,0-12.11.65-19.66,1.95-7.55,1.3-14.88,3.26-22,5.86v-35.14c7.12-2.6,14.93-4.56,23.43-5.86,8.5-1.3,18.23-1.95,29.16-1.95s19.87,1.09,28.38,3.26c8.5,2.17,15.84,5.55,22,10.15,6.16,4.6,10.94,10.37,14.32,17.31,3.38,6.94,5.08,15.27,5.08,24.99v78.36h-31.24l-11.46-34.11c-3.99,11.63-9.37,20.87-16.14,27.73-6.77,6.85-16.06,10.28-27.86,10.28-6.25,0-12.02-1.09-17.31-3.26-5.29-2.17-9.85-5.21-13.67-9.11s-6.81-8.5-8.98-13.8c-2.17-5.29-3.25-11.07-3.25-17.31ZM611.13,206.59c0,2.43,1.34,4.6,4.04,6.51,2.69,1.91,6.98,2.86,12.89,2.86,4.51,0,8.89-.65,13.15-1.95,4.25-1.3,7.59-3.08,10.02-5.34v-10.15c-2.43-.87-5.51-1.52-9.24-1.95-3.74-.43-8.38-.65-13.93-.65-6.77,0-11.29,1.17-13.54,3.52-2.26,2.34-3.39,4.73-3.39,7.16Z"/>
    <path class="st0" d="M710.32,70.17h44.26v82.53c5.9-10.24,13.36-18.49,22.39-24.73,9.02-6.25,18.57-9.37,28.64-9.37,5.03,0,9.2.87,12.49,2.6,3.3,1.74,5.9,3.95,7.81,6.64,1.91,2.69,3.26,5.6,4.04,8.72.78,3.12,1.17,5.99,1.17,8.59,0,4.34-.83,8.25-2.47,11.71-1.65,3.48-3.87,6.64-6.64,9.5-2.78,2.86-6.03,5.42-9.76,7.68-3.73,2.26-7.77,4.43-12.11,6.51l33.85,71.85h-47.64l-27.08-55.19-4.69,1.82v53.37h-44.26V70.17ZM770.2,180.56c5.21-2.25,9.28-4.69,12.23-7.29,2.95-2.6,4.43-5.73,4.43-9.37,0-2.6-.65-4.95-1.95-7.03-1.3-2.08-3.69-3.12-7.16-3.12-3.99,0-8.07,1.09-12.23,3.26-4.17,2.17-7.81,4.99-10.94,8.46v21.61l15.62-6.51Z"/>
    <path class="st0" d="M837.88,84.23c0-8.16,2.51-14.71,7.55-19.65,5.03-4.95,11.71-7.42,20.04-7.42s14.71,2.47,19.66,7.42c4.95,4.95,7.42,11.5,7.42,19.65s-2.47,15.01-7.42,20.05c-4.95,5.03-11.5,7.55-19.66,7.55s-15.01-2.51-20.04-7.55c-5.04-5.03-7.55-11.72-7.55-20.05ZM843.09,122.24h44.26v130.17h-44.26V122.24Z"/>
    <path class="st0" d="M970.65,215.97c2.6,0,4.95-.08,7.03-.26,2.08-.17,4.21-.52,6.38-1.04,2.17-.52,4.6-1.3,7.29-2.34,2.69-1.04,5.94-2.43,9.76-4.17v41.65c-3.12,1.04-6.08,1.95-8.85,2.73-2.78.78-5.56,1.43-8.33,1.95-2.78.52-5.69.95-8.72,1.3-3.04.35-6.55.52-10.54.52-7.29,0-14.15-1-20.57-2.99-6.42-1.99-11.98-5.21-16.66-9.63-4.69-4.43-8.42-10.19-11.19-17.31-2.78-7.12-4.17-15.88-4.17-26.29v-38.79h-15.62v-39.05l56.5-36.45h3.39v36.45h43.74v39.05h-43.74v33.33c0,2.43.21,4.91.65,7.42.43,2.52,1.17,4.82,2.21,6.9,1.04,2.08,2.47,3.78,4.3,5.08,1.82,1.3,4.21,1.95,7.16,1.95Z"/>
    <path class="st0" d="M1010.23,70.17h44.26v81.75c4.17-11.11,9.63-19.43,16.4-24.99,6.77-5.55,15.19-8.33,25.25-8.33,7.98,0,14.49,1.74,19.52,5.21,5.03,3.47,8.98,7.81,11.85,13.02s4.86,10.93,5.99,17.18c1.13,6.25,1.69,12.15,1.69,17.7v80.71h-44.26v-71.59c0-2.43-.22-4.95-.65-7.55-.44-2.6-1.3-4.95-2.6-7.03-1.3-2.08-3.12-3.82-5.47-5.21-2.34-1.39-5.34-2.08-8.98-2.08s-7.03.78-10.15,2.34c-3.12,1.56-5.99,3.3-8.59,5.21v85.91h-44.26V70.17Z"/>
    <path class="st0" d="M1146.9,212.84c0-6.07.87-11.8,2.6-17.18,1.73-5.38,4.34-10.06,7.81-14.06,3.47-3.99,7.85-7.16,13.15-9.5,5.29-2.34,11.41-3.52,18.35-3.52,5.55,0,10.63.61,15.23,1.82,4.6,1.22,8.68,2.73,12.23,4.56,3.56,1.82,6.68,3.9,9.37,6.25,2.69,2.34,4.99,4.65,6.9,6.9v-8.33c0-8.85-2.69-15.45-8.07-19.79-5.38-4.34-14.84-6.51-28.38-6.51-5.56,0-12.11.65-19.66,1.95-7.55,1.3-14.88,3.26-22,5.86v-35.14c7.12-2.6,14.93-4.56,23.43-5.86,8.5-1.3,18.22-1.95,29.16-1.95s19.87,1.09,28.38,3.26c8.5,2.17,15.83,5.55,22,10.15,6.16,4.6,10.93,10.37,14.32,17.31,3.39,6.94,5.08,15.27,5.08,24.99v78.36h-31.24l-11.46-34.11c-3.99,11.63-9.37,20.87-16.14,27.73-6.77,6.85-16.06,10.28-27.86,10.28-6.25,0-12.02-1.09-17.31-3.26-5.3-2.17-9.85-5.21-13.67-9.11-3.82-3.91-6.82-8.5-8.98-13.8-2.17-5.29-3.25-11.07-3.25-17.31ZM1192.46,206.59c0,2.43,1.34,4.6,4.04,6.51,2.69,1.91,6.99,2.86,12.89,2.86,4.51,0,8.89-.65,13.15-1.95,4.25-1.3,7.59-3.08,10.02-5.34v-10.15c-2.43-.87-5.51-1.52-9.24-1.95-3.73-.43-8.38-.65-13.93-.65-6.77,0-11.28,1.17-13.54,3.52-2.26,2.34-3.39,4.73-3.39,7.16Z"/>
  </g>
  <g>
    <g>
      <path class="st0" d="M209.94,287.63h-11.62v-12h36.74v12h-11.62v40.49h-13.5v-40.49Z"/>
      <path class="st0" d="M237.68,275.63h35.24v12h-21.75v10.5h20.25v7.5h-20.25v10.5h22.5v12h-35.99v-52.49Z"/>
      <path class="st0" d="M302.17,316.88c2.6,0,5.27-.16,8.02-.49,2.75-.32,5.45-.91,8.1-1.76v12.75c-1.85.55-4.31,1-7.39,1.35-3.07.35-6.56.53-10.46.53s-7.15-.65-10.2-1.95c-3.05-1.3-5.66-3.15-7.84-5.55-2.18-2.4-3.86-5.29-5.06-8.66-1.2-3.37-1.8-7.11-1.8-11.21s.52-7.84,1.57-11.21c1.05-3.37,2.59-6.26,4.61-8.66,2.03-2.4,4.49-4.25,7.39-5.55,2.9-1.3,6.22-1.95,9.97-1.95,2.65,0,5.1.33,7.35.98,2.25.65,4.21,1.72,5.89,3.22,1.67,1.5,2.99,3.48,3.94,5.93.95,2.45,1.42,5.5,1.42,9.15h-12c0-1.15-.2-2.15-.6-3-.4-.85-.93-1.56-1.57-2.14-.65-.57-1.37-1.01-2.18-1.31-.8-.3-1.6-.45-2.4-.45-3.3,0-5.71,1.38-7.24,4.12-1.53,2.75-2.29,6.37-2.29,10.87s1.09,8.12,3.26,10.87c2.18,2.75,5.34,4.12,9.49,4.12Z"/>
      <path class="st0" d="M321.67,275.63h13.5v20.62h15v-20.62h13.5v52.49h-13.5v-19.87h-15v19.87h-13.5v-52.49Z"/>
    </g>
    <g>
      <path class="st0" d="M111.59,382.21c-.45,1.4-.93,2.75-1.42,4.05-.5,1.3-1.19,2.44-2.06,3.41-.87.97-2.04,1.75-3.49,2.32-1.45.57-3.38.86-5.77.86-3.5,0-6.54-.65-9.11-1.95-2.57-1.3-4.71-3.15-6.41-5.55-1.7-2.4-2.98-5.29-3.82-8.66-.85-3.37-1.27-7.11-1.27-11.21s.52-7.84,1.57-11.21,2.59-6.26,4.61-8.66c2.03-2.4,4.49-4.25,7.39-5.55,2.9-1.3,6.22-1.95,9.97-1.95,2.65,0,5.1.33,7.35.98,2.25.65,4.21,1.72,5.89,3.22,1.67,1.5,2.99,3.48,3.94,5.93.95,2.45,1.42,5.5,1.42,9.15h-12c0-1.15-.2-2.15-.6-3-.4-.85-.93-1.56-1.57-2.14-.65-.57-1.37-1.01-2.18-1.31-.8-.3-1.6-.45-2.4-.45-3.3,0-5.71,1.38-7.24,4.12-1.53,2.75-2.29,6.37-2.29,10.87,0,2.15.21,4.14.64,5.96.42,1.83,1.06,3.41,1.91,4.76.85,1.35,1.9,2.4,3.15,3.15,1.25.75,2.7,1.13,4.35,1.13,1.15,0,2.24-.35,3.26-1.05,1.03-.7,1.92-1.57,2.7-2.62.78-1.05,1.39-2.2,1.84-3.45.45-1.25.67-2.4.67-3.45v-4.27h11.25v26.02h-10.27v-9.45Z"/>
      <path class="st0" d="M126.74,339.24h18.3c6.8,0,11.81,1.4,15.04,4.2,3.22,2.8,4.84,6.87,4.84,12.22,0,2.7-.41,4.99-1.24,6.86-.83,1.87-1.91,3.41-3.26,4.61-1.35,1.2-2.9,2.13-4.65,2.77-1.75.65-3.58,1.13-5.47,1.42.45,1.6.9,2.98,1.35,4.12.45,1.15.98,2.1,1.57,2.85.6.75,1.34,1.3,2.21,1.65.87.35,1.99.52,3.34.52s3.27-.55,5.62-1.65v12.75c-1.2.45-2.38.77-3.52.98-1.15.2-2.35.3-3.6.3-2.45,0-4.54-.6-6.26-1.8-1.72-1.2-3.19-2.79-4.39-4.76-1.2-1.97-2.19-4.22-2.96-6.75-.78-2.52-1.44-5.11-1.99-7.76h-1.42v19.95h-13.5v-52.49ZM142.03,364.29c3.15,0,5.44-.66,6.86-1.99,1.42-1.32,2.14-3.06,2.14-5.21,0-1.9-.52-3.35-1.57-4.35-1.05-1-3.12-1.5-6.22-1.5h-3v13.05h1.8Z"/>
      <path class="st0" d="M170,365.49c0-4.1.6-7.84,1.8-11.21,1.2-3.37,2.89-6.26,5.06-8.66,2.17-2.4,4.79-4.25,7.84-5.55,3.05-1.3,6.45-1.95,10.2-1.95s7.16.65,10.24,1.95c3.07,1.3,5.7,3.15,7.87,5.55,2.17,2.4,3.86,5.29,5.06,8.66,1.2,3.37,1.8,7.11,1.8,11.21s-.6,7.84-1.8,11.21c-1.2,3.38-2.89,6.26-5.06,8.66-2.18,2.4-4.8,4.25-7.87,5.55-3.07,1.3-6.49,1.95-10.24,1.95s-7.15-.65-10.2-1.95c-3.05-1.3-5.66-3.15-7.84-5.55-2.18-2.4-3.86-5.29-5.06-8.66-1.2-3.37-1.8-7.11-1.8-11.21ZM183.88,365.49c0,2.25.26,4.3.79,6.15.53,1.85,1.27,3.42,2.25,4.72.98,1.3,2.14,2.31,3.49,3.04,1.35.73,2.85,1.09,4.5,1.09s3.16-.36,4.54-1.09c1.37-.72,2.55-1.74,3.53-3.04.97-1.3,1.72-2.87,2.25-4.72.53-1.85.79-3.9.79-6.15s-.26-4.3-.79-6.15c-.52-1.85-1.27-3.42-2.25-4.73-.98-1.3-2.15-2.31-3.53-3.04-1.37-.72-2.89-1.09-4.54-1.09s-3.15.36-4.5,1.09c-1.35.73-2.51,1.74-3.49,3.04-.98,1.3-1.72,2.88-2.25,4.73-.52,1.85-.79,3.9-.79,6.15Z"/>
      <path class="st0" d="M218.75,339.24h13.2l6.9,26.85,6.9-26.85h13.2l6.9,26.85,6.9-26.85h8.25l-13.5,52.49h-8.25l-9.37-36.44-9.37,36.44h-8.25l-13.5-52.49Z"/>
      <path class="st0" d="M293.14,351.24h-11.62v-12h36.75v12h-11.62v40.49h-13.5v-40.49Z"/>
      <path class="st0" d="M320.88,339.24h13.5v20.62h15v-20.62h13.5v52.49h-13.5v-19.87h-15v19.87h-13.5v-52.49Z"/>
    </g>
    <g>
      <path class="st0" d="M73.69,401.73h18.67c3.45,0,6.46.45,9.04,1.35,2.57.9,4.71,2.16,6.41,3.79,1.7,1.62,2.96,3.58,3.79,5.85.83,2.28,1.24,4.81,1.24,7.61s-.44,5.46-1.31,7.69c-.88,2.23-2.04,4.06-3.49,5.51-1.45,1.45-3.07,2.55-4.87,3.3-1.8.75-3.65,1.13-5.55,1.13-2.55,0-4.65-.41-6.3-1.24-1.65-.82-3.02-1.81-4.12-2.96v20.47h-13.5v-52.49ZM87.18,429.4c.85.3,1.73.55,2.62.75.9.2,1.73.3,2.47.3,1.25,0,2.3-.22,3.15-.68.85-.45,1.54-1.05,2.06-1.8.52-.75.9-1.61,1.13-2.59.22-.97.34-1.96.34-2.96,0-1.75-.19-3.17-.56-4.27-.38-1.1-.93-1.99-1.65-2.66-.72-.67-1.59-1.14-2.59-1.39-1-.25-2.13-.37-3.37-.37h-3.6v15.67Z"/>
      <path class="st0" d="M121.68,401.73h23.4l12,52.49h-13.72l-2.62-12.37h-14.7l-2.62,12.37h-13.72l12-52.49ZM138.18,429.85l-4.35-20.62h-.9l-4.35,20.62h9.6Z"/>
      <path class="st0" d="M158.95,401.73h18.3c6.8,0,11.81,1.4,15.04,4.2,3.22,2.8,4.84,6.87,4.84,12.22,0,2.7-.41,4.99-1.24,6.86-.82,1.87-1.91,3.41-3.26,4.61-1.35,1.2-2.9,2.13-4.65,2.77-1.75.65-3.58,1.13-5.47,1.42.45,1.6.9,2.98,1.35,4.12.45,1.15.97,2.1,1.57,2.85.6.75,1.34,1.3,2.21,1.65.88.35,1.99.52,3.34.52s3.27-.55,5.62-1.65v12.75c-1.2.45-2.38.77-3.53.98-1.15.2-2.35.3-3.6.3-2.45,0-4.54-.6-6.26-1.8-1.72-1.2-3.19-2.79-4.39-4.76-1.2-1.97-2.19-4.22-2.96-6.75-.78-2.52-1.44-5.11-1.99-7.76h-1.42v19.95h-13.5v-52.49ZM174.25,426.77c3.15,0,5.44-.66,6.86-1.99,1.42-1.32,2.14-3.06,2.14-5.21,0-1.9-.52-3.35-1.57-4.35s-3.12-1.5-6.22-1.5h-3v13.05h1.8Z"/>
      <path class="st0" d="M209.19,413.72h-11.62v-12h36.74v12h-11.62v40.49h-13.5v-40.49Z"/>
      <path class="st0" d="M236.94,401.73h13.5l17.02,33.22v-33.22h13.5v52.49h-13.5l-17.02-33.22v33.22h-13.5v-52.49Z"/>
      <path class="st0" d="M286.58,401.73h35.24v12h-21.75v10.5h20.25v7.5h-20.25v10.5h22.5v12h-35.99v-52.49Z"/>
      <path class="st0" d="M325.95,401.73h18.3c6.8,0,11.81,1.4,15.04,4.2,3.22,2.8,4.84,6.87,4.84,12.22,0,2.7-.41,4.99-1.24,6.86-.82,1.87-1.91,3.41-3.26,4.61-1.35,1.2-2.9,2.13-4.65,2.77-1.75.65-3.58,1.13-5.47,1.42.45,1.6.9,2.98,1.35,4.12.45,1.15.97,2.1,1.57,2.85.6.75,1.34,1.3,2.21,1.65.88.35,1.99.52,3.34.52s3.27-.55,5.62-1.65v12.75c-1.2.45-2.38.77-3.53.98-1.15.2-2.35.3-3.6.3-2.45,0-4.54-.6-6.26-1.8-1.72-1.2-3.19-2.79-4.39-4.76-1.2-1.97-2.19-4.22-2.96-6.75-.78-2.52-1.44-5.11-1.99-7.76h-1.42v19.95h-13.5v-52.49ZM341.25,426.77c3.15,0,5.44-.66,6.86-1.99,1.42-1.32,2.14-3.06,2.14-5.21,0-1.9-.52-3.35-1.57-4.35-1.05-1-3.12-1.5-6.22-1.5h-3v13.05h1.8Z"/>
      <path class="st0" d="M369.22,448.07c0-2.15.65-3.87,1.95-5.17,1.3-1.3,3.02-1.95,5.17-1.95s3.87.65,5.17,1.95c1.3,1.3,1.95,3.03,1.95,5.17s-.65,3.87-1.95,5.17c-1.3,1.3-3.02,1.95-5.17,1.95s-3.87-.65-5.17-1.95c-1.3-1.3-1.95-3.02-1.95-5.17Z"/>
    </g>
  </g>
</svg>