<?xml version="1.0" encoding="UTF-8"?>
<svg id="Capa_1" xmlns="http://www.w3.org/2000/svg" version="1.1" viewBox="0 0 1350 512.62">
  <!-- Generator: Adobe Illustrator 29.8.4, SVG Export Plug-In . SVG Version: 2.1.1 Build 6)  -->
  <defs>
    <style>
      .st0 {
        fill: #241f20;
      }
    </style>
  </defs>
  <path class="st0" d="M291.39,351.99v-71.59c0-4.51-.31-8.2-.91-11.07-.61-2.86-1.43-5.08-2.47-6.64-1.04-1.56-2.3-2.64-3.77-3.26-1.48-.61-3.17-.91-5.08-.91-3.47,0-6.34.74-8.59,2.21-2.26,1.48-4.34,3.17-6.25,5.08v86.17h-44.26v-130.17h44.26v29.42c3.99-11.11,9.11-19.39,15.36-24.86,6.25-5.47,13.36-8.2,21.35-8.2,5.73,0,10.59,1,14.58,2.99,3.99,2,7.29,4.69,9.89,8.07,2.6,3.39,4.6,7.25,5.99,11.59,1.39,4.34,2.43,8.85,3.12,13.54,8.16-24.12,20.74-36.19,37.75-36.19,7.46,0,13.45,1.74,17.97,5.21,4.51,3.47,8.03,7.81,10.54,13.02,2.51,5.21,4.17,10.93,4.95,17.18.78,6.25,1.17,12.15,1.17,17.7v80.71h-44.26v-71.59c0-4.51-.31-8.2-.91-11.07-.61-2.86-1.43-5.08-2.47-6.64-1.04-1.56-2.3-2.64-3.78-3.26-1.48-.61-3.17-.91-5.08-.91-3.48,0-6.3.74-8.46,2.21-2.17,1.48-4.3,3.17-6.38,5.08v86.17h-44.26Z"/>
  <path class="st0" d="M418.7,312.42c0-6.07.87-11.8,2.6-17.18,1.73-5.38,4.34-10.06,7.81-14.06,3.47-3.99,7.85-7.16,13.15-9.5,5.29-2.34,11.41-3.52,18.35-3.52,5.55,0,10.63.61,15.23,1.82,4.6,1.22,8.68,2.73,12.24,4.56,3.55,1.82,6.68,3.9,9.37,6.25,2.69,2.34,4.99,4.65,6.9,6.9v-8.33c0-8.85-2.69-15.45-8.07-19.79-5.38-4.34-14.84-6.51-28.38-6.51-5.56,0-12.11.65-19.66,1.95-7.55,1.3-14.88,3.26-22,5.86v-35.14c7.12-2.6,14.93-4.56,23.43-5.86,8.5-1.3,18.23-1.95,29.16-1.95s19.87,1.09,28.38,3.26c8.5,2.17,15.84,5.55,22,10.15,6.16,4.6,10.94,10.37,14.32,17.31,3.38,6.94,5.08,15.27,5.08,24.99v78.36h-31.24l-11.46-34.11c-3.99,11.63-9.37,20.87-16.14,27.73-6.77,6.85-16.06,10.28-27.86,10.28-6.25,0-12.02-1.09-17.31-3.26-5.29-2.17-9.85-5.21-13.67-9.11-3.82-3.91-6.81-8.5-8.98-13.8-2.17-5.29-3.25-11.07-3.25-17.31ZM464.26,306.17c0,2.43,1.34,4.6,4.04,6.51,2.69,1.91,6.98,2.86,12.89,2.86,4.51,0,8.89-.65,13.15-1.95,4.25-1.3,7.59-3.08,10.02-5.34v-10.15c-2.43-.87-5.51-1.52-9.24-1.95-3.74-.43-8.38-.65-13.93-.65-6.77,0-11.29,1.17-13.54,3.52-2.26,2.34-3.39,4.73-3.39,7.16Z"/>
  <path class="st0" d="M563.45,169.75h44.26v82.53c5.9-10.24,13.36-18.49,22.39-24.73,9.02-6.25,18.57-9.37,28.64-9.37,5.03,0,9.2.87,12.49,2.6,3.3,1.74,5.9,3.95,7.81,6.64,1.91,2.69,3.26,5.6,4.04,8.72.78,3.12,1.17,5.99,1.17,8.59,0,4.34-.83,8.25-2.47,11.71-1.65,3.48-3.87,6.64-6.64,9.5-2.78,2.86-6.03,5.42-9.76,7.68-3.73,2.26-7.77,4.43-12.11,6.51l33.85,71.85h-47.64l-27.08-55.19-4.69,1.82v53.37h-44.26v-182.24ZM623.33,280.13c5.21-2.25,9.28-4.69,12.23-7.29,2.95-2.6,4.43-5.73,4.43-9.37,0-2.6-.65-4.95-1.95-7.03-1.3-2.08-3.69-3.12-7.16-3.12-3.99,0-8.07,1.09-12.23,3.26-4.17,2.17-7.81,4.99-10.94,8.46v21.61l15.62-6.51Z"/>
  <path class="st0" d="M691.01,183.81c0-8.16,2.51-14.71,7.55-19.65,5.03-4.95,11.71-7.42,20.04-7.42s14.71,2.47,19.66,7.42c4.95,4.95,7.42,11.5,7.42,19.65s-2.47,15.01-7.42,20.05c-4.95,5.03-11.5,7.55-19.66,7.55s-15.01-2.51-20.04-7.55c-5.04-5.03-7.55-11.72-7.55-20.05ZM696.22,221.82h44.26v130.17h-44.26v-130.17Z"/>
  <path class="st0" d="M823.78,315.54c2.6,0,4.95-.08,7.03-.26,2.08-.17,4.21-.52,6.38-1.04,2.17-.52,4.6-1.3,7.29-2.34,2.69-1.04,5.94-2.43,9.76-4.17v41.65c-3.12,1.04-6.08,1.95-8.85,2.73-2.78.78-5.56,1.43-8.33,1.95-2.78.52-5.69.95-8.72,1.3-3.04.35-6.55.52-10.54.52-7.29,0-14.15-1-20.57-2.99-6.42-1.99-11.98-5.21-16.66-9.63-4.69-4.43-8.42-10.19-11.19-17.31-2.78-7.12-4.17-15.88-4.17-26.29v-38.79h-15.62v-39.05l56.5-36.45h3.39v36.45h43.74v39.05h-43.74v33.33c0,2.43.21,4.91.65,7.42.43,2.52,1.17,4.82,2.21,6.9,1.04,2.08,2.47,3.78,4.3,5.08,1.82,1.3,4.21,1.95,7.16,1.95Z"/>
  <path class="st0" d="M863.35,169.75h44.26v81.75c4.17-11.11,9.63-19.43,16.4-24.99,6.77-5.55,15.19-8.33,25.25-8.33,7.98,0,14.49,1.74,19.52,5.21,5.03,3.47,8.98,7.81,11.85,13.02s4.86,10.93,5.99,17.18c1.13,6.25,1.69,12.15,1.69,17.7v80.71h-44.26v-71.59c0-2.43-.22-4.95-.65-7.55-.44-2.6-1.3-4.95-2.6-7.03-1.3-2.08-3.12-3.82-5.47-5.21-2.34-1.39-5.34-2.08-8.98-2.08s-7.03.78-10.15,2.34c-3.12,1.56-5.99,3.3-8.59,5.21v85.91h-44.26v-182.24Z"/>
  <path class="st0" d="M1000.03,312.42c0-6.07.87-11.8,2.6-17.18,1.73-5.38,4.34-10.06,7.81-14.06,3.47-3.99,7.85-7.16,13.15-9.5,5.29-2.34,11.41-3.52,18.35-3.52,5.55,0,10.63.61,15.23,1.82,4.6,1.22,8.68,2.73,12.23,4.56,3.56,1.82,6.68,3.9,9.37,6.25,2.69,2.34,4.99,4.65,6.9,6.9v-8.33c0-8.85-2.69-15.45-8.07-19.79-5.38-4.34-14.84-6.51-28.38-6.51-5.56,0-12.11.65-19.66,1.95-7.55,1.3-14.88,3.26-22,5.86v-35.14c7.12-2.6,14.93-4.56,23.43-5.86,8.5-1.3,18.22-1.95,29.16-1.95s19.87,1.09,28.38,3.26c8.5,2.17,15.83,5.55,22,10.15,6.16,4.6,10.93,10.37,14.32,17.31,3.39,6.94,5.08,15.27,5.08,24.99v78.36h-31.24l-11.46-34.11c-3.99,11.63-9.37,20.87-16.14,27.73-6.77,6.85-16.06,10.28-27.86,10.28-6.25,0-12.02-1.09-17.31-3.26-5.3-2.17-9.85-5.21-13.67-9.11-3.82-3.91-6.82-8.5-8.98-13.8-2.17-5.29-3.25-11.07-3.25-17.31ZM1045.59,306.17c0,2.43,1.34,4.6,4.04,6.51,2.69,1.91,6.99,2.86,12.89,2.86,4.51,0,8.89-.65,13.15-1.95,4.25-1.3,7.59-3.08,10.02-5.34v-10.15c-2.43-.87-5.51-1.52-9.24-1.95-3.73-.43-8.38-.65-13.93-.65-6.77,0-11.28,1.17-13.54,3.52-2.26,2.34-3.39,4.73-3.39,7.16Z"/>
</svg>